<svg width="28" height="28" viewBox="0 0 28 28" fill="none" xmlns="http://www.w3.org/2000/svg">
<mask id="mask0_1004_29193" style="mask-type:alpha" maskUnits="userSpaceOnUse" x="0" y="0" width="28" height="28">
<circle cx="14" cy="14" r="14" fill="white"/>
</mask>
<g mask="url(#mask0_1004_29193)">
<g filter="url(#filter0_i_1004_29193)">
<circle cx="14" cy="14" r="14" fill="#96D9FF"/>
</g>
<path d="M18.8361 21.8666C17.5439 22.5585 16.1114 22.9601 14.642 23.0424C13.1726 23.1248 11.7029 22.8859 10.3388 22.3429C10.0651 22.2335 9.79789 22.1127 9.53711 21.9805C9.86781 21.3058 10.5083 20.7263 11.3445 20.3201C11.8555 20.0752 12.3989 19.9019 12.9588 19.805C13.7905 19.6588 14.642 19.6588 15.4737 19.805C16.0356 19.9021 16.5807 20.0764 17.0931 20.3228C17.8793 20.7058 18.4919 21.2418 18.8361 21.8666Z" fill="white"/>
<path d="M14.2182 21.1395C15.8116 21.1395 17.1033 20.7392 17.1033 20.2455C17.1033 19.7518 15.8116 19.3516 14.2182 19.3516C12.6247 19.3516 11.333 19.7518 11.333 20.2455C11.333 20.7392 12.6247 21.1395 14.2182 21.1395Z" fill="#27273D"/>
<path d="M12.9561 18.832H15.476V19.7542C15.476 19.9662 15.3902 20.1696 15.2376 20.3195C15.0849 20.4695 14.8778 20.5537 14.6619 20.5537H13.7714C13.5554 20.5537 13.3484 20.4695 13.1957 20.3195C13.043 20.1696 12.9572 19.9662 12.9572 19.7542V18.832H12.9561Z" fill="#32314B"/>
<path d="M6.09932 13.1621H6.36527V15.8074H6.09932C5.79209 15.8074 5.49745 15.6876 5.28021 15.4742C5.06296 15.2609 4.94092 14.9715 4.94092 14.6698V14.3005C4.94082 14.151 4.9707 14.003 5.02887 13.8649C5.08704 13.7268 5.17235 13.6013 5.27993 13.4956C5.38751 13.3899 5.51525 13.306 5.65584 13.2488C5.79644 13.1916 5.94713 13.1621 6.09932 13.1621Z" fill="#9CBA5B"/>
<path d="M7.54103 12.1719V16.7958C7.10435 16.7958 6.68556 16.6255 6.37678 16.3222C6.068 16.019 5.89453 15.6077 5.89453 15.1789V13.7888C5.89453 13.36 6.068 12.9487 6.37678 12.6455C6.68556 12.3422 7.10435 12.1719 7.54103 12.1719Z" fill="#B0D46C"/>
<path d="M21.8992 15.8105H21.6333V13.1652H21.8992C22.2064 13.1652 22.5011 13.2851 22.7183 13.4984C22.9356 13.7118 23.0576 14.0011 23.0576 14.3029V14.6722C23.0577 14.8216 23.0278 14.9696 22.9697 15.1077C22.9115 15.2459 22.8262 15.3714 22.7186 15.4771C22.611 15.5828 22.4833 15.6667 22.3427 15.7239C22.2021 15.7811 22.0514 15.8105 21.8992 15.8105Z" fill="#9CBA5B"/>
<path d="M20.4585 16.7969V12.1729C20.8952 12.1729 21.314 12.3433 21.6227 12.6465C21.9315 12.9497 22.105 13.361 22.105 13.7899V15.1799C22.105 15.6088 21.9315 16.02 21.6227 16.3233C21.314 16.6265 20.8952 16.7969 20.4585 16.7969Z" fill="#B0D46C"/>
<path d="M19.1226 18.8788H9.04276C8.6203 18.8787 8.21425 18.7182 7.90959 18.4308C7.60493 18.1434 7.42529 17.7514 7.40827 17.3368L7.13069 10.6109C7.12192 10.3946 7.1577 10.1789 7.23588 9.97659C7.31405 9.77427 7.43302 9.58954 7.58565 9.43347C7.73827 9.2774 7.92141 9.15319 8.1241 9.0683C8.32678 8.98342 8.54483 8.93959 8.76517 8.93945H19.3998C19.6202 8.93948 19.8383 8.98324 20.041 9.06808C20.2438 9.15293 20.427 9.27713 20.5797 9.43322C20.7324 9.58931 20.8514 9.77408 20.9295 9.97644C21.0077 10.1788 21.0435 10.3946 21.0346 10.6109L20.7578 17.3361C20.7409 17.7508 20.5612 18.1431 20.2564 18.4307C19.9516 18.7182 19.5453 18.8788 19.1226 18.8788Z" fill="white"/>
<path d="M12.0326 18.8788H9.04276C8.62033 18.8786 8.21433 18.7181 7.90969 18.4307C7.60506 18.1433 7.42539 17.7513 7.40827 17.3368L7.13069 10.6109C7.12192 10.3946 7.1577 10.1789 7.23588 9.97659C7.31405 9.77427 7.43302 9.58954 7.58565 9.43347C7.73827 9.2774 7.92141 9.15319 8.1241 9.0683C8.32678 8.98342 8.54483 8.93959 8.76517 8.93945H11.755C11.5348 8.93974 11.3169 8.98368 11.1143 9.06864C10.9118 9.1536 10.7288 9.27784 10.5764 9.4339C10.4239 9.58997 10.3051 9.77465 10.227 9.97688C10.1489 10.1791 10.1133 10.3948 10.1221 10.6109L10.1523 11.3419L10.3756 16.7581L10.3993 17.3361C10.4162 17.7505 10.5956 18.1425 10.9 18.43C11.2044 18.7175 11.6102 18.8783 12.0326 18.8788Z" fill="#D8D8D8"/>
<path d="M16.3449 17.1356C14.8368 17.6557 13.3287 17.6557 11.8206 17.1356C11.0473 17.1355 10.3057 16.8338 9.75891 16.2968C9.21212 15.7598 8.90489 15.0316 8.90479 14.2722V13.6896C8.90479 12.9302 9.21198 12.2019 9.7588 11.6649C10.3056 11.1279 11.0473 10.8262 11.8206 10.8262H16.3449C17.1182 10.8262 17.8598 11.1279 18.4066 11.6649C18.9534 12.2019 19.2606 12.9302 19.2606 13.6896V14.2722C19.2606 15.0316 18.9534 15.7599 18.4066 16.2969C17.8598 16.8339 17.1182 17.1356 16.3449 17.1356Z" fill="#32314B"/>
<path d="M10.3737 16.7561C9.92736 16.5057 9.55637 16.1437 9.29839 15.707C9.04041 15.2703 8.90462 14.7744 8.90479 14.2696V13.687C8.90452 13.2262 9.01764 12.7721 9.23452 12.3634C9.4514 11.9548 9.76562 11.6036 10.1504 11.3398L10.3737 16.7561Z" fill="#27273D"/>
<path d="M17.1427 11.9433C17.4313 11.9433 17.6653 11.8388 17.6653 11.71C17.6653 11.5811 17.4313 11.4766 17.1427 11.4766C16.8541 11.4766 16.6201 11.5811 16.6201 11.71C16.6201 11.8388 16.8541 11.9433 17.1427 11.9433Z" fill="#3E436D"/>
<path d="M15.8799 11.8922C16.1033 11.8922 16.2843 11.8114 16.2843 11.7117C16.2843 11.612 16.1033 11.5312 15.8799 11.5312C15.6566 11.5312 15.4756 11.612 15.4756 11.7117C15.4756 11.8114 15.6566 11.8922 15.8799 11.8922Z" fill="#3E436D"/>
<path d="M11.2161 14.8187C11.627 14.8187 11.9601 14.4916 11.9601 14.088C11.9601 13.6845 11.627 13.3574 11.2161 13.3574C10.8053 13.3574 10.4722 13.6845 10.4722 14.088C10.4722 14.4916 10.8053 14.8187 11.2161 14.8187Z" fill="#B0D46C"/>
<path d="M16.9857 14.8187C17.3966 14.8187 17.7296 14.4916 17.7296 14.088C17.7296 13.6845 17.3966 13.3574 16.9857 13.3574C16.5748 13.3574 16.2417 13.6845 16.2417 14.088C16.2417 14.4916 16.5748 14.8187 16.9857 14.8187Z" fill="#B0D46C"/>
<path d="M12.6099 15.293H15.5563C15.5563 15.6222 15.4231 15.9378 15.1861 16.1706C14.9491 16.4034 14.6276 16.5341 14.2924 16.5341H13.8737C13.5385 16.5341 13.2171 16.4034 12.98 16.1706C12.743 15.9378 12.6099 15.6222 12.6099 15.293Z" fill="#B0D46C"/>
<path d="M14.089 9.82707C14.8547 9.82707 15.4754 9.6699 15.4754 9.47603C15.4754 9.28216 14.8547 9.125 14.089 9.125C13.3233 9.125 12.7026 9.28216 12.7026 9.47603C12.7026 9.6699 13.3233 9.82707 14.089 9.82707Z" fill="#32314B"/>
<path d="M14.0881 9.47741V8.23813L12.9561 7.73442L14.0827 7.21701V5.8125" stroke="white" stroke-width="0.486643" stroke-linecap="round" stroke-linejoin="round"/>
<path d="M14.0834 6.01779C14.6178 6.01779 15.051 5.59233 15.051 5.06749C15.051 4.54265 14.6178 4.11719 14.0834 4.11719C13.549 4.11719 13.1157 4.54265 13.1157 5.06749C13.1157 5.59233 13.549 6.01779 14.0834 6.01779Z" fill="#B0D46C"/>
</g>
<defs>
<filter id="filter0_i_1004_29193" x="0" y="-6.58824" width="28" height="34.5882" filterUnits="userSpaceOnUse" color-interpolation-filters="sRGB">
<feFlood flood-opacity="0" result="BackgroundImageFix"/>
<feBlend mode="normal" in="SourceGraphic" in2="BackgroundImageFix" result="shape"/>
<feColorMatrix in="SourceAlpha" type="matrix" values="0 0 0 0 0 0 0 0 0 0 0 0 0 0 0 0 0 0 127 0" result="hardAlpha"/>
<feOffset dy="-6.58824"/>
<feGaussianBlur stdDeviation="4.11765"/>
<feComposite in2="hardAlpha" operator="arithmetic" k2="-1" k3="1"/>
<feColorMatrix type="matrix" values="0 0 0 0 0.3475 0 0 0 0 0.508619 0 0 0 0 0.6 0 0 0 1 0"/>
<feBlend mode="normal" in2="shape" result="effect1_innerShadow_1004_29193"/>
</filter>
</defs>
</svg>
