<svg width="301" height="217" viewBox="0 0 301 217" fill="none" xmlns="http://www.w3.org/2000/svg">
<g filter="url(#filter0_di_2_18209)">
<path fill-rule="evenodd" clip-rule="evenodd" d="M173.216 33.5891C168.23 32.8136 163.244 32.0382 158.325 31.1924C96.4573 20.5532 40.0013 34.6481 40 101.817C39.9992 143.286 88.261 158.193 93.2964 159.636C93.5988 159.723 93.85 159.806 94.147 159.91C97.4649 161.072 120.251 168.197 167.634 163.301C171.221 162.93 174.953 162.613 178.769 162.289C197.029 160.74 217.225 159.027 232.786 150.434C235.991 148.665 239.982 148.834 243.103 150.748C248.074 153.797 254.578 156.418 260.443 155.392C261.04 155.288 261.195 154.545 260.721 154.168C256.027 150.438 252.333 147.504 249.433 142.35C248.035 139.865 248.602 136.838 250.134 134.433C255.689 125.713 259 114.062 259 98.3889C259 46.9295 216.096 40.2574 173.216 33.5891Z" fill="white"/>
</g>
<defs>
<filter id="filter0_di_2_18209" x="0" y="0" width="301" height="217" filterUnits="userSpaceOnUse" color-interpolation-filters="sRGB">
<feFlood flood-opacity="0" result="BackgroundImageFix"/>
<feColorMatrix in="SourceAlpha" type="matrix" values="0 0 0 0 0 0 0 0 0 0 0 0 0 0 0 0 0 0 127 0" result="hardAlpha"/>
<feOffset dy="12"/>
<feGaussianBlur stdDeviation="20"/>
<feComposite in2="hardAlpha" operator="out"/>
<feColorMatrix type="matrix" values="0 0 0 0 0.909804 0 0 0 0 0.313726 0 0 0 0 0.470588 0 0 0 1 0"/>
<feBlend mode="normal" in2="BackgroundImageFix" result="effect1_dropShadow_2_18209"/>
<feBlend mode="normal" in="SourceGraphic" in2="effect1_dropShadow_2_18209" result="shape"/>
<feColorMatrix in="SourceAlpha" type="matrix" values="0 0 0 0 0 0 0 0 0 0 0 0 0 0 0 0 0 0 127 0" result="hardAlpha"/>
<feOffset dy="-4"/>
<feGaussianBlur stdDeviation="4"/>
<feComposite in2="hardAlpha" operator="arithmetic" k2="-1" k3="1"/>
<feColorMatrix type="matrix" values="0 0 0 0 0.909804 0 0 0 0 0.313726 0 0 0 0 0.470588 0 0 0 0.16 0"/>
<feBlend mode="normal" in2="shape" result="effect2_innerShadow_2_18209"/>
</filter>
</defs>
</svg>
